<?xml version="1.0" encoding="UTF-8" standalone="no"?>
<!DOCTYPE svg PUBLIC "-//W3C//DTD SVG 1.1//EN"
 "http://www.w3.org/Graphics/SVG/1.1/DTD/svg11.dtd">
<!-- Generated by graphviz version 2.44.1 (20200629.0846)
 -->
<!-- Title: test Pages: 1 -->
<svg width="502pt" height="104pt"
 viewBox="0.00 0.00 502.00 104.00" xmlns="http://www.w3.org/2000/svg" xmlns:xlink="http://www.w3.org/1999/xlink">
<g id="graph0" class="graph" transform="scale(1 1) rotate(0) translate(4 100)">
<title>test</title>
<polygon fill="white" stroke="transparent" points="-4,4 -4,-100 498,-100 498,4 -4,4"/>
<!-- Node1 -->
<g id="node1" class="node">
<title>Node1</title>
<g id="a_node1"><a xlink:title=" ">
<polygon fill="#bfbfbf" stroke="black" points="0,-57.5 0,-76.5 33,-76.5 33,-57.5 0,-57.5"/>
<text text-anchor="middle" x="16.5" y="-64.5" font-family="Helvetica,sans-Serif" font-size="10.00">test</text>
</a>
</g>
</g>
<!-- Node2 -->
<g id="node2" class="node">
<title>Node2</title>
<g id="a_node2"><a xlink:href="../../d5/dbb/class_b_graph.html#ae7456a84ceb68f48e3dc0ec7a67dac89" target="_top" xlink:title="To add edge.">
<polygon fill="white" stroke="black" points="98,-76.5 98,-95.5 192,-95.5 192,-76.5 98,-76.5"/>
<text text-anchor="middle" x="145" y="-83.5" font-family="Helvetica,sans-Serif" font-size="10.00">BGraph::addEdge</text>
</a>
</g>
</g>
<!-- Node1&#45;&gt;Node2 -->
<g id="edge1" class="edge">
<title>Node1&#45;&gt;Node2</title>
<path fill="none" stroke="midnightblue" d="M33.01,-69.33C46.78,-71.4 67.77,-74.55 87.81,-77.56"/>
<polygon fill="midnightblue" stroke="midnightblue" points="87.43,-81.04 97.84,-79.07 88.47,-74.12 87.43,-81.04"/>
</g>
<!-- Node4 -->
<g id="node4" class="node">
<title>Node4</title>
<g id="a_node4"><a xlink:href="../../d5/dbb/class_b_graph.html#a54a9e538ebee94fa503301879308c174" target="_top" xlink:title="Returns size of maximum matching.">
<polygon fill="white" stroke="black" points="69,-38.5 69,-57.5 221,-57.5 221,-38.5 69,-38.5"/>
<text text-anchor="middle" x="145" y="-45.5" font-family="Helvetica,sans-Serif" font-size="10.00">BGraph::hopcroftKarpAlgorithm</text>
</a>
</g>
</g>
<!-- Node1&#45;&gt;Node4 -->
<g id="edge3" class="edge">
<title>Node1&#45;&gt;Node4</title>
<path fill="none" stroke="midnightblue" d="M33.01,-64.67C42.87,-63.19 56.44,-61.15 70.71,-59.01"/>
<polygon fill="midnightblue" stroke="midnightblue" points="71.29,-62.46 80.66,-57.51 70.25,-55.54 71.29,-62.46"/>
</g>
<!-- Node3 -->
<g id="node3" class="node">
<title>Node3</title>
<g id="a_node3"><a target="_blank" xlink:href="http://en.cppreference.com/w/cpp/container/vector/push_back.html#" target="_top" xlink:title=" ">
<polygon fill="white" stroke="black" points="257,-76.5 257,-95.5 373,-95.5 373,-76.5 257,-76.5"/>
<text text-anchor="middle" x="315" y="-83.5" font-family="Helvetica,sans-Serif" font-size="10.00">std::vector::push_back</text>
</a>
</g>
</g>
<!-- Node2&#45;&gt;Node3 -->
<g id="edge2" class="edge">
<title>Node2&#45;&gt;Node3</title>
<path fill="none" stroke="midnightblue" d="M192.35,-86C209.07,-86 228.3,-86 246.47,-86"/>
<polygon fill="midnightblue" stroke="midnightblue" points="246.72,-89.5 256.72,-86 246.72,-82.5 246.72,-89.5"/>
</g>
<!-- Node5 -->
<g id="node5" class="node">
<title>Node5</title>
<g id="a_node5"><a xlink:href="../../d5/dbb/class_b_graph.html#ae37a574ccc6b4fae7701e85a86b73a39" target="_top" xlink:title="Returns true if there is an augmenting path">
<polygon fill="white" stroke="black" points="280.5,-38.5 280.5,-57.5 349.5,-57.5 349.5,-38.5 280.5,-38.5"/>
<text text-anchor="middle" x="315" y="-45.5" font-family="Helvetica,sans-Serif" font-size="10.00">BGraph::bfs</text>
</a>
</g>
</g>
<!-- Node4&#45;&gt;Node5 -->
<g id="edge4" class="edge">
<title>Node4&#45;&gt;Node5</title>
<path fill="none" stroke="midnightblue" d="M221.16,-48C237.75,-48 254.8,-48 269.7,-48"/>
<polygon fill="midnightblue" stroke="midnightblue" points="270.12,-51.5 280.12,-48 270.12,-44.5 270.12,-51.5"/>
</g>
<!-- Node7 -->
<g id="node7" class="node">
<title>Node7</title>
<g id="a_node7"><a xlink:href="../../d5/dbb/class_b_graph.html#aac34688c68369d9850800587dc57b07e" target="_top" xlink:title="Adds augmenting path if there is one beginning with u">
<polygon fill="white" stroke="black" points="280.5,-0.5 280.5,-19.5 349.5,-19.5 349.5,-0.5 280.5,-0.5"/>
<text text-anchor="middle" x="315" y="-7.5" font-family="Helvetica,sans-Serif" font-size="10.00">BGraph::dfs</text>
</a>
</g>
</g>
<!-- Node4&#45;&gt;Node7 -->
<g id="edge6" class="edge">
<title>Node4&#45;&gt;Node7</title>
<path fill="none" stroke="midnightblue" d="M188.39,-38.41C213.43,-32.75 245.05,-25.6 270.31,-19.88"/>
<polygon fill="midnightblue" stroke="midnightblue" points="271.37,-23.23 280.35,-17.61 269.82,-16.4 271.37,-23.23"/>
</g>
<!-- Node6 -->
<g id="node6" class="node">
<title>Node6</title>
<g id="a_node6"><a target="_blank" xlink:href="http://en.cppreference.com/w/cpp/container/vector/end.html#" target="_top" xlink:title=" ">
<polygon fill="white" stroke="black" points="409,-19.5 409,-38.5 494,-38.5 494,-19.5 409,-19.5"/>
<text text-anchor="middle" x="451.5" y="-26.5" font-family="Helvetica,sans-Serif" font-size="10.00">std::vector::end</text>
</a>
</g>
</g>
<!-- Node5&#45;&gt;Node6 -->
<g id="edge5" class="edge">
<title>Node5&#45;&gt;Node6</title>
<path fill="none" stroke="midnightblue" d="M349.59,-43.25C364.41,-41.16 382.17,-38.65 398.63,-36.33"/>
<polygon fill="midnightblue" stroke="midnightblue" points="399.26,-39.77 408.67,-34.91 398.28,-32.84 399.26,-39.77"/>
</g>
<!-- Node7&#45;&gt;Node6 -->
<g id="edge7" class="edge">
<title>Node7&#45;&gt;Node6</title>
<path fill="none" stroke="midnightblue" d="M349.59,-14.75C364.41,-16.84 382.17,-19.35 398.63,-21.67"/>
<polygon fill="midnightblue" stroke="midnightblue" points="398.28,-25.16 408.67,-23.09 399.26,-18.23 398.28,-25.16"/>
</g>
</g>
</svg>
