<?xml version="1.0" encoding="UTF-8" standalone="no"?>
<!DOCTYPE svg PUBLIC "-//W3C//DTD SVG 1.1//EN"
 "http://www.w3.org/Graphics/SVG/1.1/DTD/svg11.dtd">
<!-- Generated by graphviz version 2.44.1 (20200629.0846)
 -->
<!-- Title: main Pages: 1 -->
<svg width="576pt" height="113pt"
 viewBox="0.00 0.00 576.00 113.00" xmlns="http://www.w3.org/2000/svg" xmlns:xlink="http://www.w3.org/1999/xlink">
<g id="graph0" class="graph" transform="scale(1 1) rotate(0) translate(4 109)">
<title>main</title>
<polygon fill="white" stroke="transparent" points="-4,4 -4,-109 572,-109 572,4 -4,4"/>
<!-- Node1 -->
<g id="node1" class="node">
<title>Node1</title>
<g id="a_node1"><a xlink:title="Main function.">
<polygon fill="#bfbfbf" stroke="black" points="0,-57.5 0,-76.5 38,-76.5 38,-57.5 0,-57.5"/>
<text text-anchor="middle" x="19" y="-64.5" font-family="Helvetica,sans-Serif" font-size="10.00">main</text>
</a>
</g>
</g>
<!-- Node2 -->
<g id="node2" class="node">
<title>Node2</title>
<g id="a_node2"><a xlink:href="../../d5/dbb/class_b_graph.html#ae7456a84ceb68f48e3dc0ec7a67dac89" target="_top" xlink:title="To add edge.">
<polygon fill="white" stroke="black" points="172,-85.5 172,-104.5 266,-104.5 266,-85.5 172,-85.5"/>
<text text-anchor="middle" x="219" y="-92.5" font-family="Helvetica,sans-Serif" font-size="10.00">BGraph::addEdge</text>
</a>
</g>
</g>
<!-- Node1&#45;&gt;Node2 -->
<g id="edge1" class="edge">
<title>Node1&#45;&gt;Node2</title>
<path fill="none" stroke="midnightblue" d="M38.14,-74.79C48.46,-78.87 61.73,-83.51 74,-86 102.5,-91.79 134.76,-94.18 161.52,-95.06"/>
<polygon fill="midnightblue" stroke="midnightblue" points="161.77,-98.57 171.86,-95.34 161.95,-91.57 161.77,-98.57"/>
</g>
<!-- Node4 -->
<g id="node4" class="node">
<title>Node4</title>
<g id="a_node4"><a xlink:href="../../d5/dbb/class_b_graph.html#a54a9e538ebee94fa503301879308c174" target="_top" xlink:title="Returns size of maximum matching.">
<polygon fill="white" stroke="black" points="143,-19.5 143,-38.5 295,-38.5 295,-19.5 143,-19.5"/>
<text text-anchor="middle" x="219" y="-26.5" font-family="Helvetica,sans-Serif" font-size="10.00">BGraph::hopcroftKarpAlgorithm</text>
</a>
</g>
</g>
<!-- Node1&#45;&gt;Node4 -->
<g id="edge3" class="edge">
<title>Node1&#45;&gt;Node4</title>
<path fill="none" stroke="midnightblue" d="M38.21,-59.53C48.55,-55.56 61.82,-50.91 74,-48 92.8,-43.5 113.24,-40 132.67,-37.29"/>
<polygon fill="midnightblue" stroke="midnightblue" points="133.27,-40.74 142.72,-35.95 132.35,-33.8 133.27,-40.74"/>
</g>
<!-- Node8 -->
<g id="node8" class="node">
<title>Node8</title>
<g id="a_node8"><a xlink:href="../../d1/d9a/hopcroft__karp_8cpp.html#ae1a3968e7947464bee7714f6d43b7002" target="_top" xlink:title=" ">
<polygon fill="white" stroke="black" points="74,-57.5 74,-76.5 107,-76.5 107,-57.5 74,-57.5"/>
<text text-anchor="middle" x="90.5" y="-64.5" font-family="Helvetica,sans-Serif" font-size="10.00">test</text>
</a>
</g>
</g>
<!-- Node1&#45;&gt;Node8 -->
<g id="edge8" class="edge">
<title>Node1&#45;&gt;Node8</title>
<path fill="none" stroke="midnightblue" d="M38.26,-67C46.07,-67 55.31,-67 63.79,-67"/>
<polygon fill="midnightblue" stroke="midnightblue" points="63.95,-70.5 73.95,-67 63.95,-63.5 63.95,-70.5"/>
</g>
<!-- Node3 -->
<g id="node3" class="node">
<title>Node3</title>
<g id="a_node3"><a target="_blank" xlink:href="http://en.cppreference.com/w/cpp/container/vector/push_back.html#" target="_top" xlink:title=" ">
<polygon fill="white" stroke="black" points="331,-85.5 331,-104.5 447,-104.5 447,-85.5 331,-85.5"/>
<text text-anchor="middle" x="389" y="-92.5" font-family="Helvetica,sans-Serif" font-size="10.00">std::vector::push_back</text>
</a>
</g>
</g>
<!-- Node2&#45;&gt;Node3 -->
<g id="edge2" class="edge">
<title>Node2&#45;&gt;Node3</title>
<path fill="none" stroke="midnightblue" d="M266.35,-95C283.07,-95 302.3,-95 320.47,-95"/>
<polygon fill="midnightblue" stroke="midnightblue" points="320.72,-98.5 330.72,-95 320.72,-91.5 320.72,-98.5"/>
</g>
<!-- Node5 -->
<g id="node5" class="node">
<title>Node5</title>
<g id="a_node5"><a xlink:href="../../d5/dbb/class_b_graph.html#ae37a574ccc6b4fae7701e85a86b73a39" target="_top" xlink:title="Returns true if there is an augmenting path">
<polygon fill="white" stroke="black" points="354.5,-38.5 354.5,-57.5 423.5,-57.5 423.5,-38.5 354.5,-38.5"/>
<text text-anchor="middle" x="389" y="-45.5" font-family="Helvetica,sans-Serif" font-size="10.00">BGraph::bfs</text>
</a>
</g>
</g>
<!-- Node4&#45;&gt;Node5 -->
<g id="edge4" class="edge">
<title>Node4&#45;&gt;Node5</title>
<path fill="none" stroke="midnightblue" d="M295.16,-37.5C311.91,-39.39 329.13,-41.34 344.13,-43.04"/>
<polygon fill="midnightblue" stroke="midnightblue" points="343.79,-46.52 354.12,-44.17 344.58,-39.57 343.79,-46.52"/>
</g>
<!-- Node7 -->
<g id="node7" class="node">
<title>Node7</title>
<g id="a_node7"><a xlink:href="../../d5/dbb/class_b_graph.html#aac34688c68369d9850800587dc57b07e" target="_top" xlink:title="Adds augmenting path if there is one beginning with u">
<polygon fill="white" stroke="black" points="354.5,-0.5 354.5,-19.5 423.5,-19.5 423.5,-0.5 354.5,-0.5"/>
<text text-anchor="middle" x="389" y="-7.5" font-family="Helvetica,sans-Serif" font-size="10.00">BGraph::dfs</text>
</a>
</g>
</g>
<!-- Node4&#45;&gt;Node7 -->
<g id="edge6" class="edge">
<title>Node4&#45;&gt;Node7</title>
<path fill="none" stroke="midnightblue" d="M295.16,-20.5C311.91,-18.61 329.13,-16.66 344.13,-14.96"/>
<polygon fill="midnightblue" stroke="midnightblue" points="344.58,-18.43 354.12,-13.83 343.79,-11.48 344.58,-18.43"/>
</g>
<!-- Node6 -->
<g id="node6" class="node">
<title>Node6</title>
<g id="a_node6"><a target="_blank" xlink:href="http://en.cppreference.com/w/cpp/container/vector/end.html#" target="_top" xlink:title=" ">
<polygon fill="white" stroke="black" points="483,-19.5 483,-38.5 568,-38.5 568,-19.5 483,-19.5"/>
<text text-anchor="middle" x="525.5" y="-26.5" font-family="Helvetica,sans-Serif" font-size="10.00">std::vector::end</text>
</a>
</g>
</g>
<!-- Node5&#45;&gt;Node6 -->
<g id="edge5" class="edge">
<title>Node5&#45;&gt;Node6</title>
<path fill="none" stroke="midnightblue" d="M423.59,-43.25C438.41,-41.16 456.17,-38.65 472.63,-36.33"/>
<polygon fill="midnightblue" stroke="midnightblue" points="473.26,-39.77 482.67,-34.91 472.28,-32.84 473.26,-39.77"/>
</g>
<!-- Node7&#45;&gt;Node6 -->
<g id="edge7" class="edge">
<title>Node7&#45;&gt;Node6</title>
<path fill="none" stroke="midnightblue" d="M423.59,-14.75C438.41,-16.84 456.17,-19.35 472.63,-21.67"/>
<polygon fill="midnightblue" stroke="midnightblue" points="472.28,-25.16 482.67,-23.09 473.26,-18.23 472.28,-25.16"/>
</g>
<!-- Node8&#45;&gt;Node2 -->
<g id="edge9" class="edge">
<title>Node8&#45;&gt;Node2</title>
<path fill="none" stroke="midnightblue" d="M107.01,-70.43C121.53,-73.65 144.09,-78.64 165.08,-83.29"/>
<polygon fill="midnightblue" stroke="midnightblue" points="164.38,-86.72 174.9,-85.46 165.89,-79.88 164.38,-86.72"/>
</g>
<!-- Node8&#45;&gt;Node4 -->
<g id="edge10" class="edge">
<title>Node8&#45;&gt;Node4</title>
<path fill="none" stroke="midnightblue" d="M107.01,-62.34C124.21,-57.17 152.68,-48.62 176.48,-41.47"/>
<polygon fill="midnightblue" stroke="midnightblue" points="177.77,-44.74 186.34,-38.51 175.76,-38.03 177.77,-44.74"/>
</g>
</g>
</svg>
