<?xml version="1.0" encoding="UTF-8" standalone="no"?>
<!DOCTYPE svg PUBLIC "-//W3C//DTD SVG 1.1//EN"
 "http://www.w3.org/Graphics/SVG/1.1/DTD/svg11.dtd">
<!-- Generated by graphviz version 2.44.1 (20200629.0846)
 -->
<!-- Title: test Pages: 1 -->
<svg width="510pt" height="104pt"
 viewBox="0.00 0.00 510.00 104.00" xmlns="http://www.w3.org/2000/svg" xmlns:xlink="http://www.w3.org/1999/xlink">
<g id="graph0" class="graph" transform="scale(1 1) rotate(0) translate(4 100)">
<title>test</title>
<polygon fill="white" stroke="transparent" points="-4,4 -4,-100 506,-100 506,4 -4,4"/>
<!-- Node1 -->
<g id="node1" class="node">
<title>Node1</title>
<g id="a_node1"><a xlink:title=" ">
<polygon fill="#bfbfbf" stroke="black" points="0,-57.5 0,-76.5 33,-76.5 33,-57.5 0,-57.5"/>
<text text-anchor="middle" x="16.5" y="-64.5" font-family="Helvetica,sans-Serif" font-size="10.00">test</text>
</a>
</g>
</g>
<!-- Node2 -->
<g id="node2" class="node">
<title>Node2</title>
<g id="a_node2"><a xlink:href="../../df/dee/class_h_k_graph.html#ac3f8b0870b8938a439a8875a269b45dc" target="_top" xlink:title="To add edge.">
<polygon fill="white" stroke="black" points="98.5,-76.5 98.5,-95.5 199.5,-95.5 199.5,-76.5 98.5,-76.5"/>
<text text-anchor="middle" x="149" y="-83.5" font-family="Helvetica,sans-Serif" font-size="10.00">HKGraph::addEdge</text>
</a>
</g>
</g>
<!-- Node1&#45;&gt;Node2 -->
<g id="edge1" class="edge">
<title>Node1&#45;&gt;Node2</title>
<path fill="none" stroke="midnightblue" d="M33.24,-69.29C47.04,-71.3 68.02,-74.35 88.27,-77.3"/>
<polygon fill="midnightblue" stroke="midnightblue" points="88.04,-80.81 98.44,-78.78 89.05,-73.88 88.04,-80.81"/>
</g>
<!-- Node4 -->
<g id="node4" class="node">
<title>Node4</title>
<g id="a_node4"><a xlink:href="../../df/dee/class_h_k_graph.html#aedfa20e6063e723095a455ab9650b457" target="_top" xlink:title="Returns size of maximum matching.">
<polygon fill="white" stroke="black" points="69,-38.5 69,-57.5 229,-57.5 229,-38.5 69,-38.5"/>
<text text-anchor="middle" x="149" y="-45.5" font-family="Helvetica,sans-Serif" font-size="10.00">HKGraph::hopcroftKarpAlgorithm</text>
</a>
</g>
</g>
<!-- Node1&#45;&gt;Node4 -->
<g id="edge3" class="edge">
<title>Node1&#45;&gt;Node4</title>
<path fill="none" stroke="midnightblue" d="M33.24,-64.71C43.53,-63.21 57.8,-61.13 72.79,-58.95"/>
<polygon fill="midnightblue" stroke="midnightblue" points="73.32,-62.41 82.71,-57.51 72.31,-55.48 73.32,-62.41"/>
</g>
<!-- Node3 -->
<g id="node3" class="node">
<title>Node3</title>
<g id="a_node3"><a target="_blank" xlink:href="http://en.cppreference.com/w/cpp/container/vector/push_back.html#" target="_top" xlink:title=" ">
<polygon fill="white" stroke="black" points="265,-76.5 265,-95.5 381,-95.5 381,-76.5 265,-76.5"/>
<text text-anchor="middle" x="323" y="-83.5" font-family="Helvetica,sans-Serif" font-size="10.00">std::vector::push_back</text>
</a>
</g>
</g>
<!-- Node2&#45;&gt;Node3 -->
<g id="edge2" class="edge">
<title>Node2&#45;&gt;Node3</title>
<path fill="none" stroke="midnightblue" d="M199.75,-86C216.91,-86 236.43,-86 254.75,-86"/>
<polygon fill="midnightblue" stroke="midnightblue" points="254.79,-89.5 264.79,-86 254.79,-82.5 254.79,-89.5"/>
</g>
<!-- Node5 -->
<g id="node5" class="node">
<title>Node5</title>
<g id="a_node5"><a xlink:href="../../df/dee/class_h_k_graph.html#a560916a42b85196acc25ae5a34c46f53" target="_top" xlink:title="Returns true if there is an augmenting path">
<polygon fill="white" stroke="black" points="284.5,-38.5 284.5,-57.5 361.5,-57.5 361.5,-38.5 284.5,-38.5"/>
<text text-anchor="middle" x="323" y="-45.5" font-family="Helvetica,sans-Serif" font-size="10.00">HKGraph::bfs</text>
</a>
</g>
</g>
<!-- Node4&#45;&gt;Node5 -->
<g id="edge4" class="edge">
<title>Node4&#45;&gt;Node5</title>
<path fill="none" stroke="midnightblue" d="M229.2,-48C244.52,-48 260.13,-48 274.06,-48"/>
<polygon fill="midnightblue" stroke="midnightblue" points="274.36,-51.5 284.36,-48 274.36,-44.5 274.36,-51.5"/>
</g>
<!-- Node7 -->
<g id="node7" class="node">
<title>Node7</title>
<g id="a_node7"><a xlink:href="../../df/dee/class_h_k_graph.html#aa705c66b42038dbdcdf589fe5c4f720d" target="_top" xlink:title="Adds augmenting path if there is one beginning with u">
<polygon fill="white" stroke="black" points="284.5,-0.5 284.5,-19.5 361.5,-19.5 361.5,-0.5 284.5,-0.5"/>
<text text-anchor="middle" x="323" y="-7.5" font-family="Helvetica,sans-Serif" font-size="10.00">HKGraph::dfs</text>
</a>
</g>
</g>
<!-- Node4&#45;&gt;Node7 -->
<g id="edge6" class="edge">
<title>Node4&#45;&gt;Node7</title>
<path fill="none" stroke="midnightblue" d="M193.4,-38.41C218.18,-32.94 249.26,-26.07 274.67,-20.46"/>
<polygon fill="midnightblue" stroke="midnightblue" points="275.44,-23.87 284.45,-18.3 273.93,-17.04 275.44,-23.87"/>
</g>
<!-- Node6 -->
<g id="node6" class="node">
<title>Node6</title>
<g id="a_node6"><a target="_blank" xlink:href="http://en.cppreference.com/w/cpp/container/vector/end.html#" target="_top" xlink:title=" ">
<polygon fill="white" stroke="black" points="417,-19.5 417,-38.5 502,-38.5 502,-19.5 417,-19.5"/>
<text text-anchor="middle" x="459.5" y="-26.5" font-family="Helvetica,sans-Serif" font-size="10.00">std::vector::end</text>
</a>
</g>
</g>
<!-- Node5&#45;&gt;Node6 -->
<g id="edge5" class="edge">
<title>Node5&#45;&gt;Node6</title>
<path fill="none" stroke="midnightblue" d="M361.82,-42.66C375.71,-40.69 391.69,-38.44 406.6,-36.33"/>
<polygon fill="midnightblue" stroke="midnightblue" points="407.3,-39.77 416.71,-34.9 406.32,-32.84 407.3,-39.77"/>
</g>
<!-- Node7&#45;&gt;Node6 -->
<g id="edge7" class="edge">
<title>Node7&#45;&gt;Node6</title>
<path fill="none" stroke="midnightblue" d="M361.82,-15.34C375.71,-17.31 391.69,-19.56 406.6,-21.67"/>
<polygon fill="midnightblue" stroke="midnightblue" points="406.32,-25.16 416.71,-23.1 407.3,-18.23 406.32,-25.16"/>
</g>
</g>
</svg>
