<?xml version="1.0" encoding="UTF-8" standalone="no"?>
<!DOCTYPE svg PUBLIC "-//W3C//DTD SVG 1.1//EN"
 "http://www.w3.org/Graphics/SVG/1.1/DTD/svg11.dtd">
<!-- Generated by graphviz version 2.44.1 (20200629.0846)
 -->
<!-- Title: main Pages: 1 -->
<svg width="507pt" height="104pt"
 viewBox="0.00 0.00 507.00 104.00" xmlns="http://www.w3.org/2000/svg" xmlns:xlink="http://www.w3.org/1999/xlink">
<g id="graph0" class="graph" transform="scale(1 1) rotate(0) translate(4 100)">
<title>main</title>
<polygon fill="white" stroke="transparent" points="-4,4 -4,-100 503,-100 503,4 -4,4"/>
<!-- Node1 -->
<g id="node1" class="node">
<title>Node1</title>
<g id="a_node1"><a xlink:title="Main function.">
<polygon fill="#bfbfbf" stroke="black" points="0,-57.5 0,-76.5 38,-76.5 38,-57.5 0,-57.5"/>
<text text-anchor="middle" x="19" y="-64.5" font-family="Helvetica,sans-Serif" font-size="10.00">main</text>
</a>
</g>
</g>
<!-- Node2 -->
<g id="node2" class="node">
<title>Node2</title>
<g id="a_node2"><a xlink:href="../../d5/dbb/class_b_graph.html#ae7456a84ceb68f48e3dc0ec7a67dac89" target="_top" xlink:title="To add edge.">
<polygon fill="white" stroke="black" points="103,-76.5 103,-95.5 197,-95.5 197,-76.5 103,-76.5"/>
<text text-anchor="middle" x="150" y="-83.5" font-family="Helvetica,sans-Serif" font-size="10.00">BGraph::addEdge</text>
</a>
</g>
</g>
<!-- Node1&#45;&gt;Node2 -->
<g id="edge1" class="edge">
<title>Node1&#45;&gt;Node2</title>
<path fill="none" stroke="midnightblue" d="M38.21,-69.68C52.46,-71.78 73.09,-74.82 92.69,-77.71"/>
<polygon fill="midnightblue" stroke="midnightblue" points="92.41,-81.2 102.81,-79.2 93.43,-74.28 92.41,-81.2"/>
</g>
<!-- Node4 -->
<g id="node4" class="node">
<title>Node4</title>
<g id="a_node4"><a xlink:href="../../d5/dbb/class_b_graph.html#a54a9e538ebee94fa503301879308c174" target="_top" xlink:title="Returns size of maximum matching.">
<polygon fill="white" stroke="black" points="74,-38.5 74,-57.5 226,-57.5 226,-38.5 74,-38.5"/>
<text text-anchor="middle" x="150" y="-45.5" font-family="Helvetica,sans-Serif" font-size="10.00">BGraph::hopcroftKarpAlgorithm</text>
</a>
</g>
</g>
<!-- Node1&#45;&gt;Node4 -->
<g id="edge3" class="edge">
<title>Node1&#45;&gt;Node4</title>
<path fill="none" stroke="midnightblue" d="M38.21,-64.32C47.95,-62.88 60.67,-61.01 74,-59.05"/>
<polygon fill="midnightblue" stroke="midnightblue" points="74.89,-62.45 84.28,-57.53 73.87,-55.53 74.89,-62.45"/>
</g>
<!-- Node3 -->
<g id="node3" class="node">
<title>Node3</title>
<g id="a_node3"><a target="_blank" xlink:href="http://en.cppreference.com/w/cpp/container/vector/push_back.html#" target="_top" xlink:title=" ">
<polygon fill="white" stroke="black" points="262,-76.5 262,-95.5 378,-95.5 378,-76.5 262,-76.5"/>
<text text-anchor="middle" x="320" y="-83.5" font-family="Helvetica,sans-Serif" font-size="10.00">std::vector::push_back</text>
</a>
</g>
</g>
<!-- Node2&#45;&gt;Node3 -->
<g id="edge2" class="edge">
<title>Node2&#45;&gt;Node3</title>
<path fill="none" stroke="midnightblue" d="M197.35,-86C214.07,-86 233.3,-86 251.47,-86"/>
<polygon fill="midnightblue" stroke="midnightblue" points="251.72,-89.5 261.72,-86 251.72,-82.5 251.72,-89.5"/>
</g>
<!-- Node5 -->
<g id="node5" class="node">
<title>Node5</title>
<g id="a_node5"><a xlink:href="../../d5/dbb/class_b_graph.html#ae37a574ccc6b4fae7701e85a86b73a39" target="_top" xlink:title="Returns true if there is an augmenting path">
<polygon fill="white" stroke="black" points="285.5,-38.5 285.5,-57.5 354.5,-57.5 354.5,-38.5 285.5,-38.5"/>
<text text-anchor="middle" x="320" y="-45.5" font-family="Helvetica,sans-Serif" font-size="10.00">BGraph::bfs</text>
</a>
</g>
</g>
<!-- Node4&#45;&gt;Node5 -->
<g id="edge4" class="edge">
<title>Node4&#45;&gt;Node5</title>
<path fill="none" stroke="midnightblue" d="M226.16,-48C242.75,-48 259.8,-48 274.7,-48"/>
<polygon fill="midnightblue" stroke="midnightblue" points="275.12,-51.5 285.12,-48 275.12,-44.5 275.12,-51.5"/>
</g>
<!-- Node7 -->
<g id="node7" class="node">
<title>Node7</title>
<g id="a_node7"><a xlink:href="../../d5/dbb/class_b_graph.html#aac34688c68369d9850800587dc57b07e" target="_top" xlink:title="Adds augmenting path if there is one beginning with u">
<polygon fill="white" stroke="black" points="285.5,-0.5 285.5,-19.5 354.5,-19.5 354.5,-0.5 285.5,-0.5"/>
<text text-anchor="middle" x="320" y="-7.5" font-family="Helvetica,sans-Serif" font-size="10.00">BGraph::dfs</text>
</a>
</g>
</g>
<!-- Node4&#45;&gt;Node7 -->
<g id="edge6" class="edge">
<title>Node4&#45;&gt;Node7</title>
<path fill="none" stroke="midnightblue" d="M193.39,-38.41C218.43,-32.75 250.05,-25.6 275.31,-19.88"/>
<polygon fill="midnightblue" stroke="midnightblue" points="276.37,-23.23 285.35,-17.61 274.82,-16.4 276.37,-23.23"/>
</g>
<!-- Node6 -->
<g id="node6" class="node">
<title>Node6</title>
<g id="a_node6"><a target="_blank" xlink:href="http://en.cppreference.com/w/cpp/container/vector/end.html#" target="_top" xlink:title=" ">
<polygon fill="white" stroke="black" points="414,-19.5 414,-38.5 499,-38.5 499,-19.5 414,-19.5"/>
<text text-anchor="middle" x="456.5" y="-26.5" font-family="Helvetica,sans-Serif" font-size="10.00">std::vector::end</text>
</a>
</g>
</g>
<!-- Node5&#45;&gt;Node6 -->
<g id="edge5" class="edge">
<title>Node5&#45;&gt;Node6</title>
<path fill="none" stroke="midnightblue" d="M354.59,-43.25C369.41,-41.16 387.17,-38.65 403.63,-36.33"/>
<polygon fill="midnightblue" stroke="midnightblue" points="404.26,-39.77 413.67,-34.91 403.28,-32.84 404.26,-39.77"/>
</g>
<!-- Node7&#45;&gt;Node6 -->
<g id="edge7" class="edge">
<title>Node7&#45;&gt;Node6</title>
<path fill="none" stroke="midnightblue" d="M354.59,-14.75C369.41,-16.84 387.17,-19.35 403.63,-21.67"/>
<polygon fill="midnightblue" stroke="midnightblue" points="403.28,-25.16 413.67,-23.09 404.26,-18.23 403.28,-25.16"/>
</g>
</g>
</svg>
