<?xml version="1.0" encoding="UTF-8" standalone="no"?>
<!DOCTYPE svg PUBLIC "-//W3C//DTD SVG 1.1//EN"
 "http://www.w3.org/Graphics/SVG/1.1/DTD/svg11.dtd">
<!-- Generated by graphviz version 2.44.1 (20200629.0846)
 -->
<!-- Title: main Pages: 1 -->
<svg width="496pt" height="107pt"
 viewBox="0.00 0.00 496.00 107.00" xmlns="http://www.w3.org/2000/svg" xmlns:xlink="http://www.w3.org/1999/xlink">
<g id="graph0" class="graph" transform="scale(1 1) rotate(0) translate(4 103)">
<title>main</title>
<polygon fill="white" stroke="transparent" points="-4,4 -4,-103 492,-103 492,4 -4,4"/>
<!-- Node1 -->
<g id="node1" class="node">
<title>Node1</title>
<g id="a_node1"><a xlink:title="Main function.">
<polygon fill="#bfbfbf" stroke="black" points="0,-57.5 0,-76.5 38,-76.5 38,-57.5 0,-57.5"/>
<text text-anchor="middle" x="19" y="-64.5" font-family="Helvetica,sans-Serif" font-size="10.00">main</text>
</a>
</g>
</g>
<!-- Node2 -->
<g id="node2" class="node">
<title>Node2</title>
<g id="a_node2"><a xlink:href="../../d4/d2f/classgraph_1_1_b_graph.html#aea9e8392ba65c056042ad39f1cd4de6a" target="_top" xlink:title="To add edge.">
<polygon fill="white" stroke="black" points="82.5,-79.5 82.5,-98.5 206.5,-98.5 206.5,-79.5 82.5,-79.5"/>
<text text-anchor="middle" x="144.5" y="-86.5" font-family="Helvetica,sans-Serif" font-size="10.00">graph::BGraph::addEdge</text>
</a>
</g>
</g>
<!-- Node1&#45;&gt;Node2 -->
<g id="edge1" class="edge">
<title>Node1&#45;&gt;Node2</title>
<path fill="none" stroke="midnightblue" d="M38.22,-70.25C49.45,-72.25 64.59,-74.94 79.87,-77.67"/>
<polygon fill="midnightblue" stroke="midnightblue" points="79.44,-81.14 89.9,-79.45 80.67,-74.25 79.44,-81.14"/>
</g>
<!-- Node4 -->
<g id="node4" class="node">
<title>Node4</title>
<g id="a_node4"><a xlink:href="../../d4/d2f/classgraph_1_1_b_graph.html#a7658d893fc6a1ff6f657389d94bd6d75" target="_top" xlink:title="Returns size of maximum matching.">
<polygon fill="white" stroke="black" points="74,-30 74,-60 215,-60 215,-30 74,-30"/>
<text text-anchor="start" x="82" y="-48" font-family="Helvetica,sans-Serif" font-size="10.00">graph::BGraph::hopcroftKarp</text>
<text text-anchor="middle" x="144.5" y="-37" font-family="Helvetica,sans-Serif" font-size="10.00">Algorithm</text>
</a>
</g>
</g>
<!-- Node1&#45;&gt;Node4 -->
<g id="edge3" class="edge">
<title>Node1&#45;&gt;Node4</title>
<path fill="none" stroke="midnightblue" d="M38.22,-63.75C45.44,-62.47 54.28,-60.89 63.73,-59.21"/>
<polygon fill="midnightblue" stroke="midnightblue" points="64.54,-62.62 73.77,-57.42 63.31,-55.73 64.54,-62.62"/>
</g>
<!-- Node3 -->
<g id="node3" class="node">
<title>Node3</title>
<g id="a_node3"><a target="_blank" xlink:href="http://en.cppreference.com/w/cpp/container/vector/push_back.html#" target="_top" xlink:title=" ">
<polygon fill="white" stroke="black" points="251,-79.5 251,-98.5 367,-98.5 367,-79.5 251,-79.5"/>
<text text-anchor="middle" x="309" y="-86.5" font-family="Helvetica,sans-Serif" font-size="10.00">std::vector::push_back</text>
</a>
</g>
</g>
<!-- Node2&#45;&gt;Node3 -->
<g id="edge2" class="edge">
<title>Node2&#45;&gt;Node3</title>
<path fill="none" stroke="midnightblue" d="M206.93,-89C217.94,-89 229.47,-89 240.64,-89"/>
<polygon fill="midnightblue" stroke="midnightblue" points="240.77,-92.5 250.77,-89 240.77,-85.5 240.77,-92.5"/>
</g>
<!-- Node5 -->
<g id="node5" class="node">
<title>Node5</title>
<g id="a_node5"><a xlink:href="../../d4/d2f/classgraph_1_1_b_graph.html#a016cf73e763b61508b87e8fce0f8c8bb" target="_top" xlink:title="Returns true if there is an augmenting path">
<polygon fill="white" stroke="black" points="259.5,-38.5 259.5,-57.5 358.5,-57.5 358.5,-38.5 259.5,-38.5"/>
<text text-anchor="middle" x="309" y="-45.5" font-family="Helvetica,sans-Serif" font-size="10.00">graph::BGraph::bfs</text>
</a>
</g>
</g>
<!-- Node4&#45;&gt;Node5 -->
<g id="edge4" class="edge">
<title>Node4&#45;&gt;Node5</title>
<path fill="none" stroke="midnightblue" d="M215.36,-46.29C226.57,-46.5 238.08,-46.71 249,-46.91"/>
<polygon fill="midnightblue" stroke="midnightblue" points="249.21,-50.42 259.27,-47.1 249.34,-43.42 249.21,-50.42"/>
</g>
<!-- Node7 -->
<g id="node7" class="node">
<title>Node7</title>
<g id="a_node7"><a xlink:href="../../d4/d2f/classgraph_1_1_b_graph.html#a398864f750b197e9f4b030d97470445e" target="_top" xlink:title="Adds augmenting path if there is one beginning with u">
<polygon fill="white" stroke="black" points="259.5,-0.5 259.5,-19.5 358.5,-19.5 358.5,-0.5 259.5,-0.5"/>
<text text-anchor="middle" x="309" y="-7.5" font-family="Helvetica,sans-Serif" font-size="10.00">graph::BGraph::dfs</text>
</a>
</g>
</g>
<!-- Node4&#45;&gt;Node7 -->
<g id="edge6" class="edge">
<title>Node4&#45;&gt;Node7</title>
<path fill="none" stroke="midnightblue" d="M215.36,-29.95C228.13,-27.2 241.28,-24.37 253.52,-21.73"/>
<polygon fill="midnightblue" stroke="midnightblue" points="254.52,-25.1 263.56,-19.57 253.04,-18.26 254.52,-25.1"/>
</g>
<!-- Node6 -->
<g id="node6" class="node">
<title>Node6</title>
<g id="a_node6"><a target="_blank" xlink:href="http://en.cppreference.com/w/cpp/container/vector/end.html#" target="_top" xlink:title=" ">
<polygon fill="white" stroke="black" points="403,-19.5 403,-38.5 488,-38.5 488,-19.5 403,-19.5"/>
<text text-anchor="middle" x="445.5" y="-26.5" font-family="Helvetica,sans-Serif" font-size="10.00">std::vector::end</text>
</a>
</g>
</g>
<!-- Node5&#45;&gt;Node6 -->
<g id="edge5" class="edge">
<title>Node5&#45;&gt;Node6</title>
<path fill="none" stroke="midnightblue" d="M358.56,-41.14C369.62,-39.58 381.41,-37.91 392.61,-36.33"/>
<polygon fill="midnightblue" stroke="midnightblue" points="393.27,-39.77 402.68,-34.91 392.29,-32.84 393.27,-39.77"/>
</g>
<!-- Node7&#45;&gt;Node6 -->
<g id="edge7" class="edge">
<title>Node7&#45;&gt;Node6</title>
<path fill="none" stroke="midnightblue" d="M358.56,-16.86C369.62,-18.42 381.41,-20.09 392.61,-21.67"/>
<polygon fill="midnightblue" stroke="midnightblue" points="392.29,-25.16 402.68,-23.09 393.27,-18.23 392.29,-25.16"/>
</g>
</g>
</svg>
