<?xml version="1.0" encoding="UTF-8" standalone="no"?>
<!DOCTYPE svg PUBLIC "-//W3C//DTD SVG 1.1//EN"
 "http://www.w3.org/Graphics/SVG/1.1/DTD/svg11.dtd">
<!-- Generated by graphviz version 2.44.1 (20200629.0846)
 -->
<!-- Title: main Pages: 1 -->
<svg width="584pt" height="113pt"
 viewBox="0.00 0.00 584.00 113.00" xmlns="http://www.w3.org/2000/svg" xmlns:xlink="http://www.w3.org/1999/xlink">
<g id="graph0" class="graph" transform="scale(1 1) rotate(0) translate(4 109)">
<title>main</title>
<polygon fill="white" stroke="transparent" points="-4,4 -4,-109 580,-109 580,4 -4,4"/>
<!-- Node1 -->
<g id="node1" class="node">
<title>Node1</title>
<g id="a_node1"><a xlink:title="Main function.">
<polygon fill="#bfbfbf" stroke="black" points="0,-57.5 0,-76.5 38,-76.5 38,-57.5 0,-57.5"/>
<text text-anchor="middle" x="19" y="-64.5" font-family="Helvetica,sans-Serif" font-size="10.00">main</text>
</a>
</g>
</g>
<!-- Node2 -->
<g id="node2" class="node">
<title>Node2</title>
<g id="a_node2"><a xlink:href="../../df/dee/class_h_k_graph.html#ac3f8b0870b8938a439a8875a269b45dc" target="_top" xlink:title="To add edge.">
<polygon fill="white" stroke="black" points="172.5,-85.5 172.5,-104.5 273.5,-104.5 273.5,-85.5 172.5,-85.5"/>
<text text-anchor="middle" x="223" y="-92.5" font-family="Helvetica,sans-Serif" font-size="10.00">HKGraph::addEdge</text>
</a>
</g>
</g>
<!-- Node1&#45;&gt;Node2 -->
<g id="edge1" class="edge">
<title>Node1&#45;&gt;Node2</title>
<path fill="none" stroke="midnightblue" d="M38.14,-74.8C48.45,-78.88 61.73,-83.52 74,-86 102.64,-91.79 134.97,-94.22 162.1,-95.12"/>
<polygon fill="midnightblue" stroke="midnightblue" points="162.13,-98.62 172.22,-95.4 162.32,-91.63 162.13,-98.62"/>
</g>
<!-- Node4 -->
<g id="node4" class="node">
<title>Node4</title>
<g id="a_node4"><a xlink:href="../../df/dee/class_h_k_graph.html#aedfa20e6063e723095a455ab9650b457" target="_top" xlink:title="Returns size of maximum matching.">
<polygon fill="white" stroke="black" points="143,-19.5 143,-38.5 303,-38.5 303,-19.5 143,-19.5"/>
<text text-anchor="middle" x="223" y="-26.5" font-family="Helvetica,sans-Serif" font-size="10.00">HKGraph::hopcroftKarpAlgorithm</text>
</a>
</g>
</g>
<!-- Node1&#45;&gt;Node4 -->
<g id="edge3" class="edge">
<title>Node1&#45;&gt;Node4</title>
<path fill="none" stroke="midnightblue" d="M38.21,-59.51C48.54,-55.54 61.82,-50.89 74,-48 92.78,-43.54 113.17,-40.07 132.63,-37.39"/>
<polygon fill="midnightblue" stroke="midnightblue" points="133.26,-40.84 142.72,-36.06 132.34,-33.9 133.26,-40.84"/>
</g>
<!-- Node8 -->
<g id="node8" class="node">
<title>Node8</title>
<g id="a_node8"><a xlink:href="../../d1/d9a/hopcroft__karp_8cpp.html#ae1a3968e7947464bee7714f6d43b7002" target="_top" xlink:title=" ">
<polygon fill="white" stroke="black" points="74,-57.5 74,-76.5 107,-76.5 107,-57.5 74,-57.5"/>
<text text-anchor="middle" x="90.5" y="-64.5" font-family="Helvetica,sans-Serif" font-size="10.00">test</text>
</a>
</g>
</g>
<!-- Node1&#45;&gt;Node8 -->
<g id="edge8" class="edge">
<title>Node1&#45;&gt;Node8</title>
<path fill="none" stroke="midnightblue" d="M38.26,-67C46.07,-67 55.31,-67 63.79,-67"/>
<polygon fill="midnightblue" stroke="midnightblue" points="63.95,-70.5 73.95,-67 63.95,-63.5 63.95,-70.5"/>
</g>
<!-- Node3 -->
<g id="node3" class="node">
<title>Node3</title>
<g id="a_node3"><a target="_blank" xlink:href="http://en.cppreference.com/w/cpp/container/vector/push_back.html#" target="_top" xlink:title=" ">
<polygon fill="white" stroke="black" points="339,-85.5 339,-104.5 455,-104.5 455,-85.5 339,-85.5"/>
<text text-anchor="middle" x="397" y="-92.5" font-family="Helvetica,sans-Serif" font-size="10.00">std::vector::push_back</text>
</a>
</g>
</g>
<!-- Node2&#45;&gt;Node3 -->
<g id="edge2" class="edge">
<title>Node2&#45;&gt;Node3</title>
<path fill="none" stroke="midnightblue" d="M273.75,-95C290.91,-95 310.43,-95 328.75,-95"/>
<polygon fill="midnightblue" stroke="midnightblue" points="328.79,-98.5 338.79,-95 328.79,-91.5 328.79,-98.5"/>
</g>
<!-- Node5 -->
<g id="node5" class="node">
<title>Node5</title>
<g id="a_node5"><a xlink:href="../../df/dee/class_h_k_graph.html#a560916a42b85196acc25ae5a34c46f53" target="_top" xlink:title="Returns true if there is an augmenting path">
<polygon fill="white" stroke="black" points="358.5,-38.5 358.5,-57.5 435.5,-57.5 435.5,-38.5 358.5,-38.5"/>
<text text-anchor="middle" x="397" y="-45.5" font-family="Helvetica,sans-Serif" font-size="10.00">HKGraph::bfs</text>
</a>
</g>
</g>
<!-- Node4&#45;&gt;Node5 -->
<g id="edge4" class="edge">
<title>Node4&#45;&gt;Node5</title>
<path fill="none" stroke="midnightblue" d="M303.2,-37.75C318.52,-39.44 334.13,-41.17 348.06,-42.7"/>
<polygon fill="midnightblue" stroke="midnightblue" points="348.04,-46.22 358.36,-43.84 348.8,-39.27 348.04,-46.22"/>
</g>
<!-- Node7 -->
<g id="node7" class="node">
<title>Node7</title>
<g id="a_node7"><a xlink:href="../../df/dee/class_h_k_graph.html#aa705c66b42038dbdcdf589fe5c4f720d" target="_top" xlink:title="Adds augmenting path if there is one beginning with u">
<polygon fill="white" stroke="black" points="358.5,-0.5 358.5,-19.5 435.5,-19.5 435.5,-0.5 358.5,-0.5"/>
<text text-anchor="middle" x="397" y="-7.5" font-family="Helvetica,sans-Serif" font-size="10.00">HKGraph::dfs</text>
</a>
</g>
</g>
<!-- Node4&#45;&gt;Node7 -->
<g id="edge6" class="edge">
<title>Node4&#45;&gt;Node7</title>
<path fill="none" stroke="midnightblue" d="M303.2,-20.25C318.52,-18.56 334.13,-16.83 348.06,-15.3"/>
<polygon fill="midnightblue" stroke="midnightblue" points="348.8,-18.73 358.36,-14.16 348.04,-11.78 348.8,-18.73"/>
</g>
<!-- Node6 -->
<g id="node6" class="node">
<title>Node6</title>
<g id="a_node6"><a target="_blank" xlink:href="http://en.cppreference.com/w/cpp/container/vector/end.html#" target="_top" xlink:title=" ">
<polygon fill="white" stroke="black" points="491,-19.5 491,-38.5 576,-38.5 576,-19.5 491,-19.5"/>
<text text-anchor="middle" x="533.5" y="-26.5" font-family="Helvetica,sans-Serif" font-size="10.00">std::vector::end</text>
</a>
</g>
</g>
<!-- Node5&#45;&gt;Node6 -->
<g id="edge5" class="edge">
<title>Node5&#45;&gt;Node6</title>
<path fill="none" stroke="midnightblue" d="M435.82,-42.66C449.71,-40.69 465.69,-38.44 480.6,-36.33"/>
<polygon fill="midnightblue" stroke="midnightblue" points="481.3,-39.77 490.71,-34.9 480.32,-32.84 481.3,-39.77"/>
</g>
<!-- Node7&#45;&gt;Node6 -->
<g id="edge7" class="edge">
<title>Node7&#45;&gt;Node6</title>
<path fill="none" stroke="midnightblue" d="M435.82,-15.34C449.71,-17.31 465.69,-19.56 480.6,-21.67"/>
<polygon fill="midnightblue" stroke="midnightblue" points="480.32,-25.16 490.71,-23.1 481.3,-18.23 480.32,-25.16"/>
</g>
<!-- Node8&#45;&gt;Node2 -->
<g id="edge9" class="edge">
<title>Node8&#45;&gt;Node2</title>
<path fill="none" stroke="midnightblue" d="M107.24,-70.38C122.29,-73.61 145.86,-78.66 167.74,-83.36"/>
<polygon fill="midnightblue" stroke="midnightblue" points="167.12,-86.81 177.64,-85.48 168.59,-79.96 167.12,-86.81"/>
</g>
<!-- Node8&#45;&gt;Node4 -->
<g id="edge10" class="edge">
<title>Node8&#45;&gt;Node4</title>
<path fill="none" stroke="midnightblue" d="M107.24,-62.42C125,-57.25 154.62,-48.62 179.32,-41.43"/>
<polygon fill="midnightblue" stroke="midnightblue" points="180.58,-44.71 189.2,-38.55 178.62,-37.99 180.58,-44.71"/>
</g>
</g>
</svg>
