<?xml version="1.0" encoding="UTF-8" standalone="no"?>
<!DOCTYPE svg PUBLIC "-//W3C//DTD SVG 1.1//EN"
 "http://www.w3.org/Graphics/SVG/1.1/DTD/svg11.dtd">
<!-- Generated by graphviz version 2.44.1 (20200629.0846)
 -->
<!-- Title: main Pages: 1 -->
<svg width="555pt" height="107pt"
 viewBox="0.00 0.00 555.00 107.00" xmlns="http://www.w3.org/2000/svg" xmlns:xlink="http://www.w3.org/1999/xlink">
<g id="graph0" class="graph" transform="scale(1 1) rotate(0) translate(4 103)">
<title>main</title>
<polygon fill="white" stroke="transparent" points="-4,4 -4,-103 551,-103 551,4 -4,4"/>
<!-- Node1 -->
<g id="node1" class="node">
<title>Node1</title>
<g id="a_node1"><a xlink:title="Main function.">
<polygon fill="#bfbfbf" stroke="black" points="0,-49.5 0,-68.5 38,-68.5 38,-49.5 0,-49.5"/>
<text text-anchor="middle" x="19" y="-56.5" font-family="Helvetica,sans-Serif" font-size="10.00">main</text>
</a>
</g>
</g>
<!-- Node2 -->
<g id="node2" class="node">
<title>Node2</title>
<g id="a_node2"><a xlink:href="../../d8/d69/classgraph_1_1_h_k_graph.html#a3b49011c09cf90a116ab53bef61cd95a" target="_top" xlink:title="function to add edge from u to v">
<polygon fill="white" stroke="black" points="143,-79.5 143,-98.5 274,-98.5 274,-79.5 143,-79.5"/>
<text text-anchor="middle" x="208.5" y="-86.5" font-family="Helvetica,sans-Serif" font-size="10.00">graph::HKGraph::addEdge</text>
</a>
</g>
</g>
<!-- Node1&#45;&gt;Node2 -->
<g id="edge1" class="edge">
<title>Node1&#45;&gt;Node2</title>
<path fill="none" stroke="midnightblue" d="M38.16,-66.7C48.48,-70.74 61.75,-75.39 74,-78 92.8,-82.01 113.37,-84.58 132.62,-86.22"/>
<polygon fill="midnightblue" stroke="midnightblue" points="132.6,-89.73 142.84,-87.01 133.15,-82.75 132.6,-89.73"/>
</g>
<!-- Node4 -->
<g id="node4" class="node">
<title>Node4</title>
<g id="a_node4"><a xlink:href="../../d8/d69/classgraph_1_1_h_k_graph.html#a9dbda80d02bdc26c3e8ff7330c9be75d" target="_top" xlink:title="This function counts the number of augmenting paths between left and right sides of the Bipartite gra...">
<polygon fill="white" stroke="black" points="144.5,-22 144.5,-52 272.5,-52 272.5,-22 144.5,-22"/>
<text text-anchor="start" x="152.5" y="-40" font-family="Helvetica,sans-Serif" font-size="10.00">graph::HKGraph::hopcroft</text>
<text text-anchor="middle" x="208.5" y="-29" font-family="Helvetica,sans-Serif" font-size="10.00">KarpAlgorithm</text>
</a>
</g>
</g>
<!-- Node1&#45;&gt;Node4 -->
<g id="edge3" class="edge">
<title>Node1&#45;&gt;Node4</title>
<path fill="none" stroke="midnightblue" d="M38.1,-51.02C48.41,-46.88 61.68,-42.25 74,-40 93.32,-36.48 114.48,-34.96 134.14,-34.5"/>
<polygon fill="midnightblue" stroke="midnightblue" points="134.32,-38 144.27,-34.35 134.22,-31 134.32,-38"/>
</g>
<!-- Node8 -->
<g id="node8" class="node">
<title>Node8</title>
<g id="a_node8"><a xlink:href="../../d1/d9a/hopcroft__karp_8cpp.html#ae1a3968e7947464bee7714f6d43b7002" target="_top" xlink:title=" ">
<polygon fill="white" stroke="black" points="74,-49.5 74,-68.5 107,-68.5 107,-49.5 74,-49.5"/>
<text text-anchor="middle" x="90.5" y="-56.5" font-family="Helvetica,sans-Serif" font-size="10.00">test</text>
</a>
</g>
</g>
<!-- Node1&#45;&gt;Node8 -->
<g id="edge8" class="edge">
<title>Node1&#45;&gt;Node8</title>
<path fill="none" stroke="midnightblue" d="M38.26,-59C46.07,-59 55.31,-59 63.79,-59"/>
<polygon fill="midnightblue" stroke="midnightblue" points="63.95,-62.5 73.95,-59 63.95,-55.5 63.95,-62.5"/>
</g>
<!-- Node3 -->
<g id="node3" class="node">
<title>Node3</title>
<g id="a_node3"><a target="_blank" xlink:href="http://en.cppreference.com/w/cpp/container/vector/push_back.html#" target="_top" xlink:title=" ">
<polygon fill="white" stroke="black" points="310,-79.5 310,-98.5 426,-98.5 426,-79.5 310,-79.5"/>
<text text-anchor="middle" x="368" y="-86.5" font-family="Helvetica,sans-Serif" font-size="10.00">std::vector::push_back</text>
</a>
</g>
</g>
<!-- Node2&#45;&gt;Node3 -->
<g id="edge2" class="edge">
<title>Node2&#45;&gt;Node3</title>
<path fill="none" stroke="midnightblue" d="M274.02,-89C282.47,-89 291.15,-89 299.65,-89"/>
<polygon fill="midnightblue" stroke="midnightblue" points="299.91,-92.5 309.91,-89 299.91,-85.5 299.91,-92.5"/>
</g>
<!-- Node5 -->
<g id="node5" class="node">
<title>Node5</title>
<g id="a_node5"><a xlink:href="../../d8/d69/classgraph_1_1_h_k_graph.html#a7491add14d9fc04f679114ca6d6f0f93" target="_top" xlink:title="This function checks for the possibility of augmented path availability.">
<polygon fill="white" stroke="black" points="314.5,-38.5 314.5,-57.5 421.5,-57.5 421.5,-38.5 314.5,-38.5"/>
<text text-anchor="middle" x="368" y="-45.5" font-family="Helvetica,sans-Serif" font-size="10.00">graph::HKGraph::bfs</text>
</a>
</g>
</g>
<!-- Node4&#45;&gt;Node5 -->
<g id="edge4" class="edge">
<title>Node4&#45;&gt;Node5</title>
<path fill="none" stroke="midnightblue" d="M272.65,-41.41C283.05,-42.14 293.83,-42.89 304.22,-43.62"/>
<polygon fill="midnightblue" stroke="midnightblue" points="304.23,-47.12 314.45,-44.33 304.72,-40.14 304.23,-47.12"/>
</g>
<!-- Node7 -->
<g id="node7" class="node">
<title>Node7</title>
<g id="a_node7"><a xlink:href="../../d8/d69/classgraph_1_1_h_k_graph.html#ae794950cb3407b6b47d3dc986cf714c0" target="_top" xlink:title="This functions checks whether an augmenting path is available exists beginning with free vertex u.">
<polygon fill="white" stroke="black" points="314.5,-0.5 314.5,-19.5 421.5,-19.5 421.5,-0.5 314.5,-0.5"/>
<text text-anchor="middle" x="368" y="-7.5" font-family="Helvetica,sans-Serif" font-size="10.00">graph::HKGraph::dfs</text>
</a>
</g>
</g>
<!-- Node4&#45;&gt;Node7 -->
<g id="edge6" class="edge">
<title>Node4&#45;&gt;Node7</title>
<path fill="none" stroke="midnightblue" d="M272.65,-26.17C283.16,-24.37 294.05,-22.51 304.54,-20.71"/>
<polygon fill="midnightblue" stroke="midnightblue" points="305.18,-24.15 314.45,-19.01 304,-17.25 305.18,-24.15"/>
</g>
<!-- Node6 -->
<g id="node6" class="node">
<title>Node6</title>
<g id="a_node6"><a target="_blank" xlink:href="http://en.cppreference.com/w/cpp/container/vector/end.html#" target="_top" xlink:title=" ">
<polygon fill="white" stroke="black" points="462,-19.5 462,-38.5 547,-38.5 547,-19.5 462,-19.5"/>
<text text-anchor="middle" x="504.5" y="-26.5" font-family="Helvetica,sans-Serif" font-size="10.00">std::vector::end</text>
</a>
</g>
</g>
<!-- Node5&#45;&gt;Node6 -->
<g id="edge5" class="edge">
<title>Node5&#45;&gt;Node6</title>
<path fill="none" stroke="midnightblue" d="M421.77,-40.55C431.6,-39.16 441.87,-37.71 451.67,-36.32"/>
<polygon fill="midnightblue" stroke="midnightblue" points="452.27,-39.77 461.68,-34.91 451.29,-32.84 452.27,-39.77"/>
</g>
<!-- Node7&#45;&gt;Node6 -->
<g id="edge7" class="edge">
<title>Node7&#45;&gt;Node6</title>
<path fill="none" stroke="midnightblue" d="M421.77,-17.45C431.6,-18.84 441.87,-20.29 451.67,-21.68"/>
<polygon fill="midnightblue" stroke="midnightblue" points="451.29,-25.16 461.68,-23.09 452.27,-18.23 451.29,-25.16"/>
</g>
<!-- Node8&#45;&gt;Node2 -->
<g id="edge9" class="edge">
<title>Node8&#45;&gt;Node2</title>
<path fill="none" stroke="midnightblue" d="M107.14,-63.05C120.94,-66.61 141.77,-72 160.88,-76.94"/>
<polygon fill="midnightblue" stroke="midnightblue" points="160.12,-80.36 170.67,-79.48 161.87,-73.58 160.12,-80.36"/>
</g>
<!-- Node8&#45;&gt;Node4 -->
<g id="edge10" class="edge">
<title>Node8&#45;&gt;Node4</title>
<path fill="none" stroke="midnightblue" d="M107.14,-56.03C114.64,-54.61 124.22,-52.79 134.47,-50.85"/>
<polygon fill="midnightblue" stroke="midnightblue" points="135.28,-54.26 144.45,-48.96 133.97,-47.38 135.28,-54.26"/>
</g>
</g>
</svg>
