<?xml version="1.0" encoding="UTF-8" standalone="no"?>
<!DOCTYPE svg PUBLIC "-//W3C//DTD SVG 1.1//EN"
 "http://www.w3.org/Graphics/SVG/1.1/DTD/svg11.dtd">
<!-- Generated by graphviz version 2.44.1 (20200629.0846)
 -->
<!-- Title: test Pages: 1 -->
<svg width="481pt" height="107pt"
 viewBox="0.00 0.00 481.00 107.00" xmlns="http://www.w3.org/2000/svg" xmlns:xlink="http://www.w3.org/1999/xlink">
<g id="graph0" class="graph" transform="scale(1 1) rotate(0) translate(4 103)">
<title>test</title>
<polygon fill="white" stroke="transparent" points="-4,4 -4,-103 477,-103 477,4 -4,4"/>
<!-- Node1 -->
<g id="node1" class="node">
<title>Node1</title>
<g id="a_node1"><a xlink:title=" ">
<polygon fill="#bfbfbf" stroke="black" points="0,-57.5 0,-76.5 33,-76.5 33,-57.5 0,-57.5"/>
<text text-anchor="middle" x="16.5" y="-64.5" font-family="Helvetica,sans-Serif" font-size="10.00">test</text>
</a>
</g>
</g>
<!-- Node2 -->
<g id="node2" class="node">
<title>Node2</title>
<g id="a_node2"><a xlink:href="../../d8/d69/classgraph_1_1_h_k_graph.html#a3b49011c09cf90a116ab53bef61cd95a" target="_top" xlink:title="To add edge.">
<polygon fill="white" stroke="black" points="69,-79.5 69,-98.5 200,-98.5 200,-79.5 69,-79.5"/>
<text text-anchor="middle" x="134.5" y="-86.5" font-family="Helvetica,sans-Serif" font-size="10.00">graph::HKGraph::addEdge</text>
</a>
</g>
</g>
<!-- Node1&#45;&gt;Node2 -->
<g id="edge1" class="edge">
<title>Node1&#45;&gt;Node2</title>
<path fill="none" stroke="midnightblue" d="M33.14,-69.97C43.65,-71.96 58.22,-74.72 73.01,-77.53"/>
<polygon fill="midnightblue" stroke="midnightblue" points="72.76,-81.04 83.24,-79.47 74.07,-74.17 72.76,-81.04"/>
</g>
<!-- Node4 -->
<g id="node4" class="node">
<title>Node4</title>
<g id="a_node4"><a xlink:href="../../d8/d69/classgraph_1_1_h_k_graph.html#a9dbda80d02bdc26c3e8ff7330c9be75d" target="_top" xlink:title="Returns size of maximum matching.">
<polygon fill="white" stroke="black" points="70.5,-30 70.5,-60 198.5,-60 198.5,-30 70.5,-30"/>
<text text-anchor="start" x="78.5" y="-48" font-family="Helvetica,sans-Serif" font-size="10.00">graph::HKGraph::hopcroft</text>
<text text-anchor="middle" x="134.5" y="-37" font-family="Helvetica,sans-Serif" font-size="10.00">KarpAlgorithm</text>
</a>
</g>
</g>
<!-- Node1&#45;&gt;Node4 -->
<g id="edge3" class="edge">
<title>Node1&#45;&gt;Node4</title>
<path fill="none" stroke="midnightblue" d="M33.14,-64.03C40.64,-62.61 50.22,-60.79 60.47,-58.85"/>
<polygon fill="midnightblue" stroke="midnightblue" points="61.28,-62.26 70.45,-56.96 59.97,-55.38 61.28,-62.26"/>
</g>
<!-- Node3 -->
<g id="node3" class="node">
<title>Node3</title>
<g id="a_node3"><a target="_blank" xlink:href="http://en.cppreference.com/w/cpp/container/vector/push_back.html#" target="_top" xlink:title=" ">
<polygon fill="white" stroke="black" points="236,-79.5 236,-98.5 352,-98.5 352,-79.5 236,-79.5"/>
<text text-anchor="middle" x="294" y="-86.5" font-family="Helvetica,sans-Serif" font-size="10.00">std::vector::push_back</text>
</a>
</g>
</g>
<!-- Node2&#45;&gt;Node3 -->
<g id="edge2" class="edge">
<title>Node2&#45;&gt;Node3</title>
<path fill="none" stroke="midnightblue" d="M200.02,-89C208.47,-89 217.15,-89 225.65,-89"/>
<polygon fill="midnightblue" stroke="midnightblue" points="225.91,-92.5 235.91,-89 225.91,-85.5 225.91,-92.5"/>
</g>
<!-- Node5 -->
<g id="node5" class="node">
<title>Node5</title>
<g id="a_node5"><a xlink:href="../../d8/d69/classgraph_1_1_h_k_graph.html#a7491add14d9fc04f679114ca6d6f0f93" target="_top" xlink:title="Returns true if there is an augmenting path">
<polygon fill="white" stroke="black" points="240.5,-38.5 240.5,-57.5 347.5,-57.5 347.5,-38.5 240.5,-38.5"/>
<text text-anchor="middle" x="294" y="-45.5" font-family="Helvetica,sans-Serif" font-size="10.00">graph::HKGraph::bfs</text>
</a>
</g>
</g>
<!-- Node4&#45;&gt;Node5 -->
<g id="edge4" class="edge">
<title>Node4&#45;&gt;Node5</title>
<path fill="none" stroke="midnightblue" d="M198.65,-46.2C209.05,-46.4 219.83,-46.61 230.22,-46.8"/>
<polygon fill="midnightblue" stroke="midnightblue" points="230.38,-50.31 240.45,-47 230.52,-43.31 230.38,-50.31"/>
</g>
<!-- Node7 -->
<g id="node7" class="node">
<title>Node7</title>
<g id="a_node7"><a xlink:href="../../d8/d69/classgraph_1_1_h_k_graph.html#ae794950cb3407b6b47d3dc986cf714c0" target="_top" xlink:title="Adds augmenting path if there is one beginning with u">
<polygon fill="white" stroke="black" points="240.5,-0.5 240.5,-19.5 347.5,-19.5 347.5,-0.5 240.5,-0.5"/>
<text text-anchor="middle" x="294" y="-7.5" font-family="Helvetica,sans-Serif" font-size="10.00">graph::HKGraph::dfs</text>
</a>
</g>
</g>
<!-- Node4&#45;&gt;Node7 -->
<g id="edge6" class="edge">
<title>Node4&#45;&gt;Node7</title>
<path fill="none" stroke="midnightblue" d="M198.65,-30.97C212.43,-27.9 226.87,-24.7 240.19,-21.73"/>
<polygon fill="midnightblue" stroke="midnightblue" points="241.13,-25.11 250.13,-19.53 239.61,-18.28 241.13,-25.11"/>
</g>
<!-- Node6 -->
<g id="node6" class="node">
<title>Node6</title>
<g id="a_node6"><a target="_blank" xlink:href="http://en.cppreference.com/w/cpp/container/vector/end.html#" target="_top" xlink:title=" ">
<polygon fill="white" stroke="black" points="388,-19.5 388,-38.5 473,-38.5 473,-19.5 388,-19.5"/>
<text text-anchor="middle" x="430.5" y="-26.5" font-family="Helvetica,sans-Serif" font-size="10.00">std::vector::end</text>
</a>
</g>
</g>
<!-- Node5&#45;&gt;Node6 -->
<g id="edge5" class="edge">
<title>Node5&#45;&gt;Node6</title>
<path fill="none" stroke="midnightblue" d="M347.77,-40.55C357.6,-39.16 367.87,-37.71 377.67,-36.32"/>
<polygon fill="midnightblue" stroke="midnightblue" points="378.27,-39.77 387.68,-34.91 377.29,-32.84 378.27,-39.77"/>
</g>
<!-- Node7&#45;&gt;Node6 -->
<g id="edge7" class="edge">
<title>Node7&#45;&gt;Node6</title>
<path fill="none" stroke="midnightblue" d="M347.77,-17.45C357.6,-18.84 367.87,-20.29 377.67,-21.68"/>
<polygon fill="midnightblue" stroke="midnightblue" points="377.29,-25.16 387.68,-23.09 378.27,-18.23 377.29,-25.16"/>
</g>
</g>
</svg>
