<?xml version="1.0" encoding="UTF-8" standalone="no"?>
<!DOCTYPE svg PUBLIC "-//W3C//DTD SVG 1.1//EN"
 "http://www.w3.org/Graphics/SVG/1.1/DTD/svg11.dtd">
<!-- Generated by graphviz version 2.44.1 (20200629.0846)
 -->
<!-- Title: BGraph::hopcroftKarpAlgorithm Pages: 1 -->
<svg width="386pt" height="66pt"
 viewBox="0.00 0.00 386.00 66.00" xmlns="http://www.w3.org/2000/svg" xmlns:xlink="http://www.w3.org/1999/xlink">
<g id="graph0" class="graph" transform="scale(1 1) rotate(0) translate(4 62)">
<title>BGraph::hopcroftKarpAlgorithm</title>
<polygon fill="white" stroke="transparent" points="-4,4 -4,-62 382,-62 382,4 -4,4"/>
<!-- Node1 -->
<g id="node1" class="node">
<title>Node1</title>
<g id="a_node1"><a xlink:title="Returns size of maximum matching.">
<polygon fill="#bfbfbf" stroke="black" points="0,-19.5 0,-38.5 152,-38.5 152,-19.5 0,-19.5"/>
<text text-anchor="middle" x="76" y="-26.5" font-family="Helvetica,sans-Serif" font-size="10.00">BGraph::hopcroftKarpAlgorithm</text>
</a>
</g>
</g>
<!-- Node2 -->
<g id="node2" class="node">
<title>Node2</title>
<g id="a_node2"><a xlink:href="../../d5/dbb/class_b_graph.html#ae37a574ccc6b4fae7701e85a86b73a39" target="_top" xlink:title="Returns true if there is an augmenting path">
<polygon fill="white" stroke="black" points="188,-38.5 188,-57.5 257,-57.5 257,-38.5 188,-38.5"/>
<text text-anchor="middle" x="222.5" y="-45.5" font-family="Helvetica,sans-Serif" font-size="10.00">BGraph::bfs</text>
</a>
</g>
</g>
<!-- Node1&#45;&gt;Node2 -->
<g id="edge1" class="edge">
<title>Node1&#45;&gt;Node2</title>
<path fill="none" stroke="midnightblue" d="M149.67,-38.56C159.27,-39.82 168.86,-41.08 177.76,-42.25"/>
<polygon fill="midnightblue" stroke="midnightblue" points="177.48,-45.74 187.85,-43.58 178.39,-38.8 177.48,-45.74"/>
</g>
<!-- Node4 -->
<g id="node4" class="node">
<title>Node4</title>
<g id="a_node4"><a xlink:href="../../d5/dbb/class_b_graph.html#aac34688c68369d9850800587dc57b07e" target="_top" xlink:title="Adds augmenting path if there is one beginning with u">
<polygon fill="white" stroke="black" points="188,-0.5 188,-19.5 257,-19.5 257,-0.5 188,-0.5"/>
<text text-anchor="middle" x="222.5" y="-7.5" font-family="Helvetica,sans-Serif" font-size="10.00">BGraph::dfs</text>
</a>
</g>
</g>
<!-- Node1&#45;&gt;Node4 -->
<g id="edge3" class="edge">
<title>Node1&#45;&gt;Node4</title>
<path fill="none" stroke="midnightblue" d="M149.67,-19.44C159.27,-18.18 168.86,-16.92 177.76,-15.75"/>
<polygon fill="midnightblue" stroke="midnightblue" points="178.39,-19.2 187.85,-14.42 177.48,-12.26 178.39,-19.2"/>
</g>
<!-- Node3 -->
<g id="node3" class="node">
<title>Node3</title>
<g id="a_node3"><a target="_blank" xlink:href="http://en.cppreference.com/w/cpp/container/vector/end.html#" target="_top" xlink:title=" ">
<polygon fill="white" stroke="black" points="293,-19.5 293,-38.5 378,-38.5 378,-19.5 293,-19.5"/>
<text text-anchor="middle" x="335.5" y="-26.5" font-family="Helvetica,sans-Serif" font-size="10.00">std::vector::end</text>
</a>
</g>
</g>
<!-- Node2&#45;&gt;Node3 -->
<g id="edge2" class="edge">
<title>Node2&#45;&gt;Node3</title>
<path fill="none" stroke="midnightblue" d="M257.1,-42.25C265.18,-40.87 273.98,-39.36 282.67,-37.87"/>
<polygon fill="midnightblue" stroke="midnightblue" points="283.5,-41.28 292.76,-36.14 282.32,-34.38 283.5,-41.28"/>
</g>
<!-- Node4&#45;&gt;Node3 -->
<g id="edge4" class="edge">
<title>Node4&#45;&gt;Node3</title>
<path fill="none" stroke="midnightblue" d="M257.1,-15.75C265.18,-17.13 273.98,-18.64 282.67,-20.13"/>
<polygon fill="midnightblue" stroke="midnightblue" points="282.32,-23.62 292.76,-21.86 283.5,-16.72 282.32,-23.62"/>
</g>
</g>
</svg>
