<?xml version="1.0" encoding="UTF-8" standalone="no"?>
<!DOCTYPE svg PUBLIC "-//W3C//DTD SVG 1.1//EN"
 "http://www.w3.org/Graphics/SVG/1.1/DTD/svg11.dtd">
<!-- Generated by graphviz version 2.44.1 (20200629.0846)
 -->
<!-- Title: graph::BGraph::hopcroftKarpAlgorithm Pages: 1 -->
<svg width="405pt" height="66pt"
 viewBox="0.00 0.00 405.00 66.00" xmlns="http://www.w3.org/2000/svg" xmlns:xlink="http://www.w3.org/1999/xlink">
<g id="graph0" class="graph" transform="scale(1 1) rotate(0) translate(4 62)">
<title>graph::BGraph::hopcroftKarpAlgorithm</title>
<polygon fill="white" stroke="transparent" points="-4,4 -4,-62 401,-62 401,4 -4,4"/>
<!-- Node1 -->
<g id="node1" class="node">
<title>Node1</title>
<g id="a_node1"><a xlink:title="Returns size of maximum matching.">
<polygon fill="#bfbfbf" stroke="black" points="0,-14 0,-44 141,-44 141,-14 0,-14"/>
<text text-anchor="start" x="8" y="-32" font-family="Helvetica,sans-Serif" font-size="10.00">graph::BGraph::hopcroftKarp</text>
<text text-anchor="middle" x="70.5" y="-21" font-family="Helvetica,sans-Serif" font-size="10.00">Algorithm</text>
</a>
</g>
</g>
<!-- Node2 -->
<g id="node2" class="node">
<title>Node2</title>
<g id="a_node2"><a xlink:href="../../d4/d2f/classgraph_1_1_b_graph.html#a016cf73e763b61508b87e8fce0f8c8bb" target="_top" xlink:title="Returns true if there is an augmenting path">
<polygon fill="white" stroke="black" points="177,-38.5 177,-57.5 276,-57.5 276,-38.5 177,-38.5"/>
<text text-anchor="middle" x="226.5" y="-45.5" font-family="Helvetica,sans-Serif" font-size="10.00">graph::BGraph::bfs</text>
</a>
</g>
</g>
<!-- Node1&#45;&gt;Node2 -->
<g id="edge1" class="edge">
<title>Node1&#45;&gt;Node2</title>
<path fill="none" stroke="midnightblue" d="M141.29,-37.61C149.78,-38.66 158.38,-39.72 166.69,-40.74"/>
<polygon fill="midnightblue" stroke="midnightblue" points="166.29,-44.22 176.64,-41.97 167.15,-37.27 166.29,-44.22"/>
</g>
<!-- Node4 -->
<g id="node4" class="node">
<title>Node4</title>
<g id="a_node4"><a xlink:href="../../d4/d2f/classgraph_1_1_b_graph.html#a398864f750b197e9f4b030d97470445e" target="_top" xlink:title="Adds augmenting path if there is one beginning with u">
<polygon fill="white" stroke="black" points="177,-0.5 177,-19.5 276,-19.5 276,-0.5 177,-0.5"/>
<text text-anchor="middle" x="226.5" y="-7.5" font-family="Helvetica,sans-Serif" font-size="10.00">graph::BGraph::dfs</text>
</a>
</g>
</g>
<!-- Node1&#45;&gt;Node4 -->
<g id="edge3" class="edge">
<title>Node1&#45;&gt;Node4</title>
<path fill="none" stroke="midnightblue" d="M141.29,-20.39C149.78,-19.34 158.38,-18.28 166.69,-17.26"/>
<polygon fill="midnightblue" stroke="midnightblue" points="167.15,-20.73 176.64,-16.03 166.29,-13.78 167.15,-20.73"/>
</g>
<!-- Node3 -->
<g id="node3" class="node">
<title>Node3</title>
<g id="a_node3"><a target="_blank" xlink:href="http://en.cppreference.com/w/cpp/container/vector/end.html#" target="_top" xlink:title=" ">
<polygon fill="white" stroke="black" points="312,-19.5 312,-38.5 397,-38.5 397,-19.5 312,-19.5"/>
<text text-anchor="middle" x="354.5" y="-26.5" font-family="Helvetica,sans-Serif" font-size="10.00">std::vector::end</text>
</a>
</g>
</g>
<!-- Node2&#45;&gt;Node3 -->
<g id="edge2" class="edge">
<title>Node2&#45;&gt;Node3</title>
<path fill="none" stroke="midnightblue" d="M276.21,-40.65C284.58,-39.39 293.31,-38.08 301.75,-36.8"/>
<polygon fill="midnightblue" stroke="midnightblue" points="302.51,-40.23 311.88,-35.28 301.47,-33.31 302.51,-40.23"/>
</g>
<!-- Node4&#45;&gt;Node3 -->
<g id="edge4" class="edge">
<title>Node4&#45;&gt;Node3</title>
<path fill="none" stroke="midnightblue" d="M276.21,-17.35C284.58,-18.61 293.31,-19.92 301.75,-21.2"/>
<polygon fill="midnightblue" stroke="midnightblue" points="301.47,-24.69 311.88,-22.72 302.51,-17.77 301.47,-24.69"/>
</g>
</g>
</svg>
