<?xml version="1.0" encoding="UTF-8" standalone="no"?>
<!DOCTYPE svg PUBLIC "-//W3C//DTD SVG 1.1//EN"
 "http://www.w3.org/Graphics/SVG/1.1/DTD/svg11.dtd">
<!-- Generated by graphviz version 2.44.1 (20200629.0846)
 -->
<!-- Title: HKGraph::hopcroftKarpAlgorithm Pages: 1 -->
<svg width="402pt" height="66pt"
 viewBox="0.00 0.00 402.00 66.00" xmlns="http://www.w3.org/2000/svg" xmlns:xlink="http://www.w3.org/1999/xlink">
<g id="graph0" class="graph" transform="scale(1 1) rotate(0) translate(4 62)">
<title>HKGraph::hopcroftKarpAlgorithm</title>
<polygon fill="white" stroke="transparent" points="-4,4 -4,-62 398,-62 398,4 -4,4"/>
<!-- Node1 -->
<g id="node1" class="node">
<title>Node1</title>
<g id="a_node1"><a xlink:title="Returns size of maximum matching.">
<polygon fill="#bfbfbf" stroke="black" points="0,-19.5 0,-38.5 160,-38.5 160,-19.5 0,-19.5"/>
<text text-anchor="middle" x="80" y="-26.5" font-family="Helvetica,sans-Serif" font-size="10.00">HKGraph::hopcroftKarpAlgorithm</text>
</a>
</g>
</g>
<!-- Node2 -->
<g id="node2" class="node">
<title>Node2</title>
<g id="a_node2"><a xlink:href="../../df/dee/class_h_k_graph.html#a560916a42b85196acc25ae5a34c46f53" target="_top" xlink:title="Returns true if there is an augmenting path">
<polygon fill="white" stroke="black" points="196,-38.5 196,-57.5 273,-57.5 273,-38.5 196,-38.5"/>
<text text-anchor="middle" x="234.5" y="-45.5" font-family="Helvetica,sans-Serif" font-size="10.00">HKGraph::bfs</text>
</a>
</g>
</g>
<!-- Node1&#45;&gt;Node2 -->
<g id="edge1" class="edge">
<title>Node1&#45;&gt;Node2</title>
<path fill="none" stroke="midnightblue" d="M157.7,-38.56C167.19,-39.74 176.67,-40.92 185.55,-42.03"/>
<polygon fill="midnightblue" stroke="midnightblue" points="185.31,-45.52 195.67,-43.29 186.18,-38.58 185.31,-45.52"/>
</g>
<!-- Node4 -->
<g id="node4" class="node">
<title>Node4</title>
<g id="a_node4"><a xlink:href="../../df/dee/class_h_k_graph.html#aa705c66b42038dbdcdf589fe5c4f720d" target="_top" xlink:title="Adds augmenting path if there is one beginning with u">
<polygon fill="white" stroke="black" points="196,-0.5 196,-19.5 273,-19.5 273,-0.5 196,-0.5"/>
<text text-anchor="middle" x="234.5" y="-7.5" font-family="Helvetica,sans-Serif" font-size="10.00">HKGraph::dfs</text>
</a>
</g>
</g>
<!-- Node1&#45;&gt;Node4 -->
<g id="edge3" class="edge">
<title>Node1&#45;&gt;Node4</title>
<path fill="none" stroke="midnightblue" d="M157.7,-19.44C167.19,-18.26 176.67,-17.08 185.55,-15.97"/>
<polygon fill="midnightblue" stroke="midnightblue" points="186.18,-19.42 195.67,-14.71 185.31,-12.48 186.18,-19.42"/>
</g>
<!-- Node3 -->
<g id="node3" class="node">
<title>Node3</title>
<g id="a_node3"><a target="_blank" xlink:href="http://en.cppreference.com/w/cpp/container/vector/end.html#" target="_top" xlink:title=" ">
<polygon fill="white" stroke="black" points="309,-19.5 309,-38.5 394,-38.5 394,-19.5 309,-19.5"/>
<text text-anchor="middle" x="351.5" y="-26.5" font-family="Helvetica,sans-Serif" font-size="10.00">std::vector::end</text>
</a>
</g>
</g>
<!-- Node2&#45;&gt;Node3 -->
<g id="edge2" class="edge">
<title>Node2&#45;&gt;Node3</title>
<path fill="none" stroke="midnightblue" d="M273.16,-41.78C281.35,-40.43 290.15,-38.97 298.78,-37.54"/>
<polygon fill="midnightblue" stroke="midnightblue" points="299.49,-40.98 308.78,-35.89 298.35,-34.07 299.49,-40.98"/>
</g>
<!-- Node4&#45;&gt;Node3 -->
<g id="edge4" class="edge">
<title>Node4&#45;&gt;Node3</title>
<path fill="none" stroke="midnightblue" d="M273.16,-16.22C281.35,-17.57 290.15,-19.03 298.78,-20.46"/>
<polygon fill="midnightblue" stroke="midnightblue" points="298.35,-23.93 308.78,-22.11 299.49,-17.02 298.35,-23.93"/>
</g>
</g>
</svg>
